<svg xmlns="http://www.w3.org/2000/svg" width="500" height="500" viewBox="0 0 500 500">
<g>
<path d="M 0.00 0.00 L 500.00 0.00 L 500.00 500.00 L 0.00 500.00 ZM 107.69 369.36 C108.51,370.17 112.99,367.79 112.41,366.85 C111.53,365.43 380.40,365.77 383.52,367.19 C385.66,368.17 386.31,368.12 387.06,366.94 C387.56,366.15 387.98,357.72 387.98,348.22 C388.00,334.41 387.72,330.83 386.62,330.41 C385.64,330.03 385.23,328.04 385.23,323.69 C385.24,314.18 385.11,313.25 383.56,311.70 C382.77,310.91 381.05,310.38 379.73,310.52 C377.84,310.73 377.39,310.35 377.54,308.64 C377.78,306.03 375.32,303.00 372.97,303.00 C370.19,303.00 369.19,300.85 369.32,295.17 C369.43,290.61 369.09,289.58 367.00,288.00 C365.66,286.99 364.26,286.34 363.89,286.57 C363.17,287.01 361.19,284.97 361.14,283.74 C361.13,283.32 360.82,280.98 360.45,278.52 C359.74,273.80 358.74,272.44 355.51,271.85 C353.94,271.55 353.50,270.66 353.46,267.67 C353.40,263.78 351.74,261.78 349.33,262.70 C347.07,263.57 345.22,261.16 345.51,257.73 C345.65,255.95 345.26,253.86 344.64,253.09 C343.78,252.03 343.80,251.57 344.70,251.27 C345.61,250.97 345.62,250.27 344.77,248.40 C343.87,246.43 343.09,246.02 340.82,246.38 C338.43,246.76 338.00,246.48 338.00,244.57 C338.00,241.35 334.60,237.78 331.92,238.18 C329.54,238.52 329.36,238.08 328.48,230.07 C328.03,226.00 325.44,222.00 323.24,222.00 C322.33,222.00 317.62,212.03 317.89,210.68 C317.98,210.22 317.62,210.11 317.11,210.43 C315.95,211.15 313.05,208.40 312.88,206.43 C312.81,205.64 312.64,204.55 312.50,204.00 C312.36,203.45 312.19,202.48 312.12,201.83 C312.06,201.19 311.71,200.95 311.36,201.30 C311.01,201.65 309.53,201.09 308.08,200.05 C305.75,198.40 305.40,197.41 305.19,191.83 C304.85,182.78 304.41,181.81 300.92,182.37 C297.99,182.83 297.58,182.33 297.95,178.73 C298.13,177.00 292.36,173.66 290.83,174.60 C290.01,175.11 289.30,172.60 289.12,168.50 C288.84,161.88 286.87,157.34 284.84,158.60 C283.34,159.52 281.18,157.11 280.44,153.68 C280.06,151.93 279.36,150.25 278.88,149.94 C278.40,149.64 277.91,148.18 277.79,146.69 C277.66,145.21 276.96,144.00 276.21,144.00 C274.07,144.00 271.81,141.18 272.41,139.25 C273.18,136.79 271.81,135.05 268.41,134.13 C266.81,133.70 265.49,132.66 265.48,131.81 C265.48,130.96 264.89,129.58 264.19,128.72 C263.28,127.63 263.23,126.98 264.00,126.50 C264.60,126.13 264.92,124.40 264.72,122.66 C264.39,119.85 263.99,119.50 261.16,119.51 C259.16,119.52 257.83,118.96 257.58,118.01 C257.37,117.18 256.91,115.24 256.56,113.71 C256.22,112.17 255.50,111.19 254.97,111.52 C254.44,111.85 254.00,111.68 254.00,111.15 C254.00,110.62 253.16,110.41 252.14,110.67 C249.87,111.27 249.28,109.44 249.43,102.30 C249.53,97.91 249.21,96.92 247.37,95.93 C246.17,95.29 244.81,95.00 244.33,95.29 C243.86,95.58 242.61,95.19 241.55,94.41 C240.49,93.64 240.06,93.00 240.59,93.00 C241.13,93.00 241.65,91.90 241.77,90.56 C242.01,87.59 239.95,86.78 231.51,86.54 C225.11,86.36 223.00,87.43 223.00,90.87 C223.00,93.55 221.47,94.36 215.51,94.81 C209.53,95.26 207.00,96.46 207.00,98.84 C207.00,101.26 205.05,103.00 202.34,103.00 C199.85,103.00 197.48,106.35 198.64,108.22 C199.04,108.87 199.40,111.90 199.43,114.95 L 199.50 120.50 L 202.75 120.49 C204.54,120.49 206.00,120.85 206.00,121.30 C206.00,121.75 206.45,121.84 207.01,121.50 C207.58,121.14 207.51,121.98 206.83,123.46 C205.39,126.64 206.76,128.43 210.80,128.64 C212.28,128.72 213.76,128.83 214.09,128.89 C214.41,128.95 214.64,132.13 214.59,135.95 C214.51,142.30 214.70,143.00 216.82,143.97 C218.10,144.55 219.52,144.80 219.96,144.52 C221.27,143.71 223.09,146.60 222.40,148.39 C221.68,150.27 223.77,156.00 225.18,156.00 C225.70,156.00 225.87,156.40 225.57,156.89 C225.26,157.38 226.06,158.05 227.34,158.37 C229.00,158.79 230.02,160.14 230.90,163.05 C231.76,165.94 233.11,167.72 235.49,169.13 C237.35,170.22 238.84,171.88 238.80,172.81 C238.63,176.87 240.11,184.45 241.20,185.12 C241.85,185.53 243.20,185.43 244.20,184.90 C245.19,184.36 246.04,184.28 246.10,184.71 C246.15,185.15 246.31,186.78 246.45,188.35 C246.73,191.55 248.66,193.21 251.19,192.43 C253.42,191.74 254.68,194.37 254.82,200.00 C255.03,208.17 255.91,209.94 259.54,209.54 C262.81,209.19 264.23,211.79 263.88,217.48 C263.61,221.76 265.35,225.52 267.09,224.44 C268.94,223.30 271.74,225.89 271.28,228.31 C270.79,230.86 273.48,234.44 275.12,233.42 C277.33,232.06 278.77,235.13 278.57,240.78 C278.34,247.20 279.59,249.24 283.83,249.40 C285.30,249.46 286.56,250.06 286.62,250.75 C286.69,251.44 286.81,252.56 286.89,253.25 C287.16,255.63 288.83,257.32 291.16,257.58 C292.45,257.72 293.81,257.87 294.18,257.92 C294.56,257.96 294.73,261.15 294.57,264.99 C294.35,269.98 294.66,272.30 295.63,273.11 C296.39,273.73 297.00,274.00 297.00,273.71 C297.00,273.41 298.20,273.49 299.66,273.88 C302.02,274.52 302.36,275.16 302.67,279.55 C302.87,282.27 303.21,285.40 303.44,286.50 C303.66,287.60 303.88,288.83 303.92,289.23 C303.97,289.62 305.15,289.51 306.57,288.98 C310.43,287.51 310.94,287.74 310.55,290.84 C310.08,294.51 310.82,295.60 314.98,297.35 C318.19,298.70 318.40,299.08 318.49,303.76 C318.60,308.89 321.10,314.19 323.30,313.92 C326.03,313.57 326.60,314.14 326.41,317.00 C326.18,320.33 327.31,321.47 330.91,321.53 C333.75,321.58 335.99,324.41 334.44,325.96 C333.76,326.64 296.24,326.99 221.76,327.01 C160.35,327.02 109.74,326.94 109.30,326.82 C108.12,326.50 104.01,328.03 103.92,328.82 C103.88,329.19 103.66,330.40 103.44,331.50 C103.21,332.60 103.51,334.44 104.10,335.59 C105.05,337.46 104.87,358.69 103.84,365.89 C103.60,367.59 104.03,368.36 105.34,368.56 C106.35,368.72 107.41,369.08 107.69,369.36 Z" fill="rgb(0,0,0)"/>
<path d="M 107.69 369.36 C107.41,369.08 106.35,368.72 105.34,368.56 C104.03,368.36 103.60,367.59 103.84,365.89 C104.87,358.69 105.05,337.46 104.10,335.59 C103.51,334.44 103.21,332.60 103.44,331.50 C103.66,330.40 103.88,329.19 103.92,328.82 C104.01,328.03 108.12,326.50 109.30,326.82 C109.74,326.94 160.35,327.02 221.76,327.01 C296.24,326.99 333.76,326.64 334.44,325.96 C335.99,324.41 333.75,321.58 330.91,321.53 C327.31,321.47 326.18,320.33 326.41,317.00 C326.60,314.14 326.03,313.57 323.30,313.92 C321.10,314.19 318.60,308.89 318.49,303.76 C318.40,299.08 318.19,298.70 314.98,297.35 C310.82,295.60 310.08,294.51 310.55,290.84 C310.94,287.74 310.43,287.51 306.57,288.98 C305.15,289.51 303.97,289.62 303.92,289.23 C303.88,288.83 303.66,287.60 303.44,286.50 C303.21,285.40 302.87,282.27 302.67,279.55 C302.36,275.16 302.02,274.52 299.66,273.88 C298.20,273.49 297.00,273.41 297.00,273.71 C297.00,274.00 296.39,273.73 295.63,273.11 C294.66,272.30 294.35,269.98 294.57,264.99 C294.73,261.15 294.56,257.96 294.18,257.92 C293.81,257.87 292.45,257.72 291.16,257.58 C288.83,257.32 287.16,255.63 286.89,253.25 C286.81,252.56 286.69,251.44 286.62,250.75 C286.56,250.06 285.30,249.46 283.83,249.40 C279.59,249.24 278.34,247.20 278.57,240.78 C278.77,235.13 277.33,232.06 275.12,233.42 C273.48,234.44 270.79,230.86 271.28,228.31 C271.74,225.89 268.94,223.30 267.09,224.44 C265.35,225.52 263.61,221.76 263.88,217.48 C264.23,211.79 262.81,209.19 259.54,209.54 C255.91,209.94 255.03,208.17 254.82,200.00 C254.68,194.37 253.42,191.74 251.19,192.43 C248.66,193.21 246.73,191.55 246.45,188.35 C246.31,186.78 246.15,185.15 246.10,184.71 C246.04,184.28 245.19,184.36 244.20,184.90 C243.20,185.43 241.85,185.53 241.20,185.12 C240.11,184.45 238.63,176.87 238.80,172.81 C238.84,171.88 237.35,170.22 235.49,169.13 C233.11,167.72 231.76,165.94 230.90,163.05 C230.02,160.14 229.00,158.79 227.34,158.37 C226.06,158.05 225.26,157.38 225.57,156.89 C225.87,156.40 225.70,156.00 225.18,156.00 C223.77,156.00 221.68,150.27 222.40,148.39 C223.09,146.60 221.27,143.71 219.96,144.52 C219.52,144.80 218.10,144.55 216.82,143.97 C214.70,143.00 214.51,142.30 214.59,135.95 C214.64,132.13 214.41,128.95 214.09,128.89 C213.76,128.83 212.28,128.72 210.80,128.64 C206.76,128.43 205.39,126.64 206.83,123.46 C207.51,121.98 207.58,121.14 207.01,121.50 C206.45,121.84 206.00,121.75 206.00,121.30 C206.00,120.85 204.54,120.49 202.75,120.49 L 199.50 120.50 L 199.43 114.95 C199.40,111.90 199.04,108.87 198.64,108.22 C197.48,106.35 199.85,103.00 202.34,103.00 C205.05,103.00 207.00,101.26 207.00,98.84 C207.00,96.46 209.53,95.26 215.51,94.81 C221.47,94.36 223.00,93.55 223.00,90.87 C223.00,87.43 225.11,86.36 231.51,86.54 C239.95,86.78 242.01,87.59 241.77,90.56 C241.65,91.90 241.13,93.00 240.59,93.00 C240.06,93.00 240.49,93.64 241.55,94.41 C242.61,95.19 243.86,95.58 244.33,95.29 C244.81,95.00 246.17,95.29 247.37,95.93 C249.21,96.92 249.53,97.91 249.43,102.30 C249.28,109.44 249.87,111.27 252.14,110.67 C253.16,110.41 254.00,110.62 254.00,111.15 C254.00,111.68 254.44,111.85 254.97,111.52 C255.50,111.19 256.22,112.17 256.56,113.71 C256.91,115.24 257.37,117.18 257.58,118.01 C257.83,118.96 259.16,119.52 261.16,119.51 C263.99,119.50 264.39,119.85 264.72,122.66 C264.92,124.40 264.60,126.13 264.00,126.50 C263.23,126.98 263.28,127.63 264.19,128.72 C264.89,129.58 265.48,130.96 265.48,131.81 C265.49,132.66 266.81,133.70 268.41,134.13 C271.81,135.05 273.18,136.79 272.41,139.25 C271.81,141.18 274.07,144.00 276.21,144.00 C276.96,144.00 277.66,145.21 277.79,146.69 C277.91,148.18 278.40,149.64 278.88,149.94 C279.36,150.25 280.06,151.93 280.44,153.68 C281.18,157.11 283.34,159.52 284.84,158.60 C286.87,157.34 288.84,161.88 289.12,168.50 C289.30,172.60 290.01,175.11 290.83,174.60 C292.36,173.66 298.13,177.00 297.95,178.73 C297.58,182.33 297.99,182.83 300.92,182.37 C304.41,181.81 304.85,182.78 305.19,191.83 C305.40,197.41 305.75,198.40 308.08,200.05 C309.53,201.09 311.01,201.65 311.36,201.30 C311.71,200.95 312.06,201.19 312.12,201.83 C312.19,202.48 312.36,203.45 312.50,204.00 C312.64,204.55 312.81,205.64 312.88,206.43 C313.05,208.40 315.95,211.15 317.11,210.43 C317.62,210.11 317.98,210.22 317.89,210.68 C317.62,212.03 322.33,222.00 323.24,222.00 C325.44,222.00 328.03,226.00 328.48,230.07 C329.36,238.08 329.54,238.52 331.92,238.18 C334.60,237.78 338.00,241.35 338.00,244.57 C338.00,246.48 338.43,246.76 340.82,246.38 C343.09,246.02 343.87,246.43 344.77,248.40 C345.62,250.27 345.61,250.97 344.70,251.27 C343.80,251.57 343.78,252.03 344.64,253.09 C345.26,253.86 345.65,255.95 345.51,257.73 C345.22,261.16 347.07,263.57 349.33,262.70 C351.74,261.78 353.40,263.78 353.46,267.67 C353.50,270.66 353.94,271.55 355.51,271.85 C358.74,272.44 359.74,273.80 360.45,278.52 C360.82,280.98 361.13,283.32 361.14,283.74 C361.19,284.97 363.17,287.01 363.89,286.57 C364.26,286.34 365.66,286.99 367.00,288.00 C369.09,289.58 369.43,290.61 369.32,295.17 C369.19,300.85 370.19,303.00 372.97,303.00 C375.32,303.00 377.78,306.03 377.54,308.64 C377.39,310.35 377.84,310.73 379.73,310.52 C381.05,310.38 382.77,310.91 383.56,311.70 C385.11,313.25 385.24,314.18 385.23,323.69 C385.23,328.04 385.64,330.03 386.62,330.41 C387.72,330.83 388.00,334.41 387.98,348.22 C387.98,357.72 387.56,366.15 387.06,366.94 C386.31,368.12 385.66,368.17 383.52,367.19 C382.13,366.56 327.55,366.14 267.72,366.00 C359.16,365.96 383.89,365.67 384.18,364.75 C384.94,362.34 384.22,330.17 383.38,328.84 C382.91,328.10 382.48,326.60 382.41,325.50 C382.18,321.30 381.96,320.80 380.58,321.33 C379.75,321.65 378.49,320.86 377.58,319.47 C375.77,316.72 375.55,315.61 377.00,316.50 C377.55,316.84 378.00,316.61 378.00,316.00 C378.00,315.39 378.45,315.16 379.00,315.50 C379.55,315.84 380.00,315.59 380.00,314.95 C380.00,314.31 379.44,314.00 378.75,314.26 C378.06,314.52 376.54,314.38 375.37,313.95 C373.71,313.33 373.32,312.49 373.60,310.08 C373.92,307.35 373.60,306.89 371.46,307.04 C370.59,307.09 368.00,304.22 368.00,303.19 C368.00,302.67 367.33,301.68 366.50,301.00 C365.67,300.32 365.01,299.25 365.02,298.63 C365.02,298.01 365.47,298.17 366.00,299.00 C366.58,299.90 366.98,300.02 366.98,299.31 C366.99,298.65 366.55,297.84 366.00,297.50 C365.33,297.08 365.33,296.26 366.00,295.01 C367.20,292.76 367.32,290.95 366.15,292.80 C365.50,293.82 365.02,293.72 363.91,292.36 C363.00,291.23 362.94,290.88 363.75,291.37 C364.44,291.78 365.00,291.64 365.00,291.06 C365.00,290.48 364.55,289.94 364.00,289.88 C359.89,289.36 358.18,287.73 357.83,284.00 C357.56,281.16 357.07,280.48 355.22,280.39 C353.96,280.32 352.82,280.10 352.68,279.89 C349.11,274.59 347.16,271.00 347.88,271.00 C348.38,271.00 349.04,270.34 349.35,269.53 C350.07,267.66 347.39,264.91 345.54,265.62 C344.65,265.96 343.18,264.66 341.56,262.10 C340.15,259.87 339.00,257.76 339.00,257.43 C339.00,257.09 338.10,255.67 337.00,254.28 C335.83,252.78 335.18,250.77 335.43,249.39 C335.67,248.09 335.49,246.80 335.02,246.52 C334.56,246.23 334.44,245.05 334.74,243.90 C335.39,241.39 333.59,240.03 330.38,240.61 C328.60,240.93 327.70,240.33 326.51,238.01 C325.65,236.36 325.20,235.00 325.51,235.00 C325.82,235.00 325.19,234.05 324.11,232.89 C322.16,230.80 322.29,228.23 324.43,226.77 C325.07,226.33 324.77,226.02 323.69,226.02 C322.57,226.01 322.16,225.56 322.61,224.83 C323.09,224.04 322.78,223.87 321.66,224.30 C320.75,224.65 320.00,224.47 320.00,223.91 C320.00,223.34 319.64,223.10 319.20,223.37 C318.76,223.65 318.42,222.43 318.43,220.68 C318.45,218.28 318.06,217.57 316.82,217.77 C315.29,218.03 309.00,211.54 309.00,209.70 C309.00,209.24 307.65,206.89 305.99,204.49 C304.34,202.09 302.86,198.63 302.72,196.81 C302.53,194.47 301.95,193.50 300.75,193.50 C299.79,193.50 297.53,191.15 295.58,188.12 C292.12,182.75 292.11,182.73 294.16,181.07 C296.03,179.56 296.06,179.30 294.58,178.07 C293.69,177.33 291.98,176.67 290.77,176.61 C287.35,176.44 284.01,170.73 284.73,166.30 C285.15,163.71 284.99,162.89 284.16,163.40 C283.52,163.80 283.00,163.59 283.00,162.94 C283.00,162.06 282.62,162.07 281.50,163.00 C280.29,164.00 279.98,163.98 279.88,162.87 C279.45,157.64 278.12,155.02 276.28,155.72 C275.07,156.19 274.81,155.93 275.28,154.71 C275.69,153.66 274.90,152.06 273.11,150.27 C271.57,148.73 270.43,146.69 270.57,145.74 C270.81,144.11 269.44,142.55 267.75,142.52 C267.34,142.51 267.00,142.16 267.00,141.75 L 267.00 139.94 C267.00,139.36 267.41,139.14 267.91,139.45 C268.41,139.76 268.71,139.22 268.57,138.25 C268.29,136.39 265.93,135.82 264.86,137.35 C263.90,138.72 261.74,134.09 262.32,131.90 C262.68,130.52 262.29,130.00 260.88,130.00 C259.81,130.00 258.64,129.21 258.29,128.25 C257.93,127.29 256.76,125.30 255.69,123.83 C254.46,122.15 253.92,120.20 254.23,118.58 C254.50,117.16 254.31,116.00 253.80,116.00 C253.30,116.00 253.16,115.55 253.50,115.00 C253.84,114.45 253.15,114.00 251.97,114.00 C249.94,114.00 246.11,110.53 246.03,108.62 C246.01,108.14 244.16,105.05 241.91,101.76 C239.61,98.38 238.03,95.01 238.28,94.03 C238.96,91.43 237.24,89.07 234.98,89.50 C233.89,89.71 233.00,89.41 233.00,88.82 C233.00,88.19 232.31,88.31 231.31,89.13 C229.85,90.31 229.74,90.29 230.50,89.00 C231.25,87.72 231.14,87.70 229.75,88.82 C228.85,89.55 228.36,90.90 228.65,91.82 C229.06,93.09 228.96,93.17 228.24,92.18 C227.47,91.10 226.98,91.16 225.65,92.50 C224.74,93.40 224.00,94.79 224.00,95.57 C224.00,96.60 222.73,97.00 219.45,97.00 C216.07,97.00 214.33,97.58 212.66,99.25 C209.60,102.31 205.38,105.00 203.64,105.00 C200.89,105.00 201.11,107.91 204.10,111.10 C205.75,112.87 206.87,114.89 206.60,115.61 C206.31,116.36 206.63,116.69 207.37,116.41 C209.30,115.67 211.25,120.67 209.97,123.06 C209.40,124.13 209.28,125.07 209.71,125.15 C210.15,125.24 210.95,125.41 211.50,125.54 C212.05,125.66 213.03,125.82 213.68,125.88 C216.32,126.14 219.32,132.16 219.16,136.88 C219.05,140.21 219.28,141.08 219.99,140.00 C220.70,138.91 220.97,138.86 220.98,139.81 C220.99,140.53 221.40,140.87 221.89,140.57 C222.37,140.27 223.39,140.78 224.14,141.70 C225.31,143.15 225.29,143.26 224.00,142.50 C222.72,141.75 222.70,141.86 223.83,143.26 C224.57,144.16 225.28,145.98 225.43,147.30 C225.57,148.61 227.05,150.99 228.71,152.59 C231.81,155.57 233.35,159.01 233.92,164.19 C233.97,164.57 235.35,165.68 237.00,166.66 C239.72,168.26 241.70,171.35 241.21,173.22 C241.10,173.62 241.97,174.45 243.13,175.07 C244.84,175.98 245.09,175.94 244.43,174.85 C243.78,173.77 243.91,173.74 245.09,174.69 C245.90,175.35 247.57,177.67 248.80,179.86 C250.76,183.35 250.85,184.00 249.56,185.29 C247.85,187.01 248.36,187.70 252.67,189.50 C256.47,191.09 257.73,193.31 257.50,198.00 C257.41,199.93 257.75,202.04 258.25,202.71 C258.76,203.37 258.89,204.38 258.53,204.94 C258.14,205.58 258.55,205.72 259.61,205.32 C260.73,204.89 261.09,205.05 260.65,205.76 C260.27,206.37 260.49,207.19 261.14,207.59 C261.82,208.01 262.04,207.88 261.67,207.27 C261.31,206.70 261.70,205.66 262.53,204.97 C263.78,203.93 263.94,203.98 263.45,205.26 C263.13,206.10 263.41,207.14 264.09,207.55 C264.92,208.07 265.05,207.89 264.50,207.00 C263.96,206.13 264.08,205.93 264.86,206.41 C265.51,206.81 265.76,207.57 265.43,208.11 C265.11,208.64 265.74,210.81 266.85,212.94 C267.96,215.06 268.56,217.14 268.18,217.56 C267.81,217.98 267.97,218.05 268.55,217.73 C270.13,216.83 271.98,218.36 272.60,221.07 C273.36,224.37 274.08,228.25 274.22,229.71 C274.28,230.37 274.65,230.71 275.05,230.47 C275.81,230.00 282.00,232.82 282.00,233.63 C282.00,233.90 281.44,233.78 280.75,233.37 C279.14,232.40 282.05,236.21 283.76,237.30 C284.63,237.86 284.72,238.65 284.05,239.90 C282.95,241.97 284.49,244.13 286.52,243.35 C288.42,242.62 289.33,244.79 289.15,249.62 C289.02,253.08 289.40,254.14 291.11,255.06 C292.75,255.94 293.07,255.92 292.50,255.00 C291.95,254.11 292.24,254.06 293.64,254.81 C296.82,256.51 299.26,259.77 298.40,261.17 C297.96,261.88 297.53,264.53 297.44,267.06 C297.29,271.53 297.36,271.66 300.14,271.49 C301.95,271.38 303.00,271.81 303.00,272.66 C303.00,273.40 303.52,274.00 304.17,274.00 C304.81,274.00 305.05,274.28 304.71,274.63 C304.36,274.97 304.69,276.44 305.44,277.88 C306.87,280.66 311.00,284.85 311.00,283.53 C311.00,283.10 311.65,283.29 312.44,283.95 C313.23,284.61 313.63,285.79 313.33,286.58 C312.95,287.57 313.26,287.84 314.32,287.43 C315.48,286.99 315.72,287.35 315.31,288.91 C315.02,290.05 314.42,290.76 313.99,290.49 C312.73,289.72 312.05,292.65 313.22,293.82 C313.81,294.41 315.46,294.66 316.90,294.38 C318.83,294.01 319.84,294.43 320.82,296.04 C321.92,297.84 321.92,298.08 320.82,297.46 C319.76,296.85 319.74,296.97 320.75,298.05 C322.28,299.70 322.40,301.37 320.93,300.45 C319.58,299.62 321.87,303.76 324.40,306.72 C325.97,308.56 326.07,309.21 325.01,310.49 C323.92,311.80 323.97,311.95 325.28,311.45 C327.05,310.77 328.90,313.51 329.21,317.26 C329.41,319.64 331.25,320.20 333.77,318.64 C334.45,318.22 335.00,318.08 335.00,318.32 C335.00,318.56 335.67,320.36 336.49,322.32 C336.69,322.79 336.91,323.24 337.12,323.65 C337.59,324.58 337.98,325.35 337.82,325.99 C337.07,329.07 323.59,329.06 244.89,329.00 C237.68,328.99 229.93,328.98 221.60,328.98 C159.32,328.95 107.61,329.21 106.69,329.57 C105.19,330.14 105.00,332.25 105.00,348.11 L 105.00 366.00 L 179.55 366.00 C140.77,366.11 112.12,366.39 112.41,366.85 C112.99,367.79 108.51,370.17 107.69,369.36 ZM 282.00 239.00 C282.00,239.55 282.20,240.00 282.44,240.00 C282.68,240.00 283.16,239.55 283.50,239.00 C283.84,238.45 283.64,238.00 283.06,238.00 C282.48,238.00 282.00,238.45 282.00,239.00 Z" fill="rgb(1,1,1)"/>
<path d="M 248.16 178.78 C250.77,182.96 253.43,187.24 256.15,191.60 C284.25,236.65 315.23,286.33 325.00,302.00 L 342.77 330.50 L 223.89 330.75 L 105.61 331.01 C105.86,330.10 106.20,329.75 106.69,329.57 C107.61,329.21 159.32,328.95 221.60,328.98 C229.93,328.98 237.68,328.99 244.89,329.00 C323.59,329.06 337.07,329.07 337.82,325.99 C337.98,325.35 337.59,324.58 337.12,323.65 C336.91,323.24 336.69,322.79 336.49,322.32 C335.67,320.36 335.00,318.56 335.00,318.32 C335.00,318.08 334.45,318.22 333.77,318.64 C331.25,320.20 329.41,319.64 329.21,317.26 C328.90,313.51 327.05,310.77 325.28,311.45 C323.97,311.95 323.92,311.80 325.01,310.49 C326.07,309.21 325.97,308.56 324.40,306.72 C321.87,303.76 319.58,299.62 320.93,300.45 C322.40,301.37 322.28,299.70 320.75,298.05 C319.74,296.97 319.76,296.85 320.82,297.46 C321.92,298.08 321.92,297.84 320.82,296.04 C319.84,294.43 318.83,294.01 316.90,294.38 C315.46,294.66 313.81,294.41 313.22,293.82 C312.05,292.65 312.73,289.72 313.99,290.49 C314.42,290.76 315.02,290.05 315.31,288.91 C315.72,287.35 315.48,286.99 314.32,287.43 C313.26,287.84 312.95,287.57 313.33,286.58 C313.63,285.79 313.23,284.61 312.44,283.95 C311.65,283.29 311.00,283.10 311.00,283.53 C311.00,284.85 306.87,280.66 305.44,277.88 C304.69,276.44 304.36,274.97 304.71,274.63 C305.05,274.28 304.81,274.00 304.17,274.00 C303.52,274.00 303.00,273.40 303.00,272.66 C303.00,271.81 301.95,271.38 300.14,271.49 C297.36,271.66 297.29,271.53 297.44,267.06 C297.53,264.53 297.96,261.88 298.40,261.17 C299.26,259.77 296.82,256.51 293.64,254.81 C292.24,254.06 291.95,254.11 292.50,255.00 C293.07,255.92 292.75,255.94 291.11,255.06 C289.40,254.14 289.02,253.08 289.15,249.62 C289.33,244.79 288.42,242.62 286.52,243.35 C284.49,244.13 282.95,241.97 284.05,239.90 C284.72,238.65 284.63,237.86 283.76,237.30 C282.05,236.21 279.14,232.40 280.75,233.37 C281.44,233.78 282.00,233.90 282.00,233.63 C282.00,232.82 275.81,230.00 275.05,230.47 C274.65,230.71 274.28,230.37 274.22,229.71 C274.08,228.25 273.36,224.37 272.60,221.07 C271.98,218.36 270.13,216.83 268.55,217.73 C267.97,218.05 267.81,217.98 268.18,217.56 C268.56,217.14 267.96,215.06 266.85,212.94 C265.74,210.81 265.11,208.64 265.43,208.11 C265.76,207.57 265.51,206.81 264.86,206.41 C264.08,205.93 263.96,206.13 264.50,207.00 C265.05,207.89 264.92,208.07 264.09,207.55 C263.41,207.14 263.13,206.10 263.45,205.26 C263.94,203.98 263.78,203.93 262.53,204.97 C261.70,205.66 261.31,206.70 261.67,207.27 C262.04,207.88 261.82,208.01 261.14,207.59 C260.49,207.19 260.27,206.37 260.65,205.76 C261.09,205.05 260.73,204.89 259.61,205.32 C258.55,205.72 258.14,205.58 258.53,204.94 C258.89,204.38 258.76,203.37 258.25,202.71 C257.75,202.04 257.41,199.93 257.50,198.00 C257.73,193.31 256.47,191.09 252.67,189.50 C248.36,187.70 247.85,187.01 249.56,185.29 C250.85,184.00 250.76,183.35 248.80,179.86 C248.60,179.50 248.38,179.14 248.16,178.78 ZM 241.17 100.63 C240.37,99.42 239.57,98.27 238.85,97.29 C236.50,94.10 234.48,91.35 234.37,91.16 C234.09,90.72 206.11,108.01 205.51,108.98 C205.29,109.34 223.74,139.51 247.92,178.39 C246.87,176.71 245.72,175.20 245.09,174.69 C243.91,173.74 243.78,173.77 244.43,174.85 C245.09,175.94 244.84,175.98 243.13,175.07 C241.97,174.45 241.10,173.62 241.21,173.22 C241.70,171.35 239.72,168.26 237.00,166.66 C235.35,165.68 233.97,164.57 233.92,164.19 C233.35,159.01 231.81,155.57 228.71,152.59 C227.05,150.99 225.57,148.61 225.43,147.30 C225.28,145.98 224.57,144.16 223.83,143.26 C222.70,141.86 222.72,141.75 224.00,142.50 C225.29,143.26 225.31,143.15 224.14,141.70 C223.39,140.78 222.37,140.27 221.89,140.57 C221.40,140.87 220.99,140.53 220.98,139.81 C220.97,138.86 220.70,138.91 219.99,140.00 C219.28,141.08 219.05,140.21 219.16,136.88 C219.32,132.16 216.32,126.14 213.68,125.88 C213.03,125.82 212.05,125.66 211.50,125.54 C210.95,125.41 210.15,125.24 209.71,125.15 C209.28,125.07 209.40,124.13 209.97,123.06 C211.25,120.67 209.30,115.67 207.37,116.41 C206.63,116.69 206.31,116.36 206.60,115.61 C206.87,114.89 205.75,112.87 204.10,111.10 C201.11,107.91 200.89,105.00 203.64,105.00 C205.38,105.00 209.60,102.31 212.66,99.25 C214.33,97.58 216.07,97.00 219.45,97.00 C222.73,97.00 224.00,96.60 224.00,95.57 C224.00,94.79 224.74,93.40 225.65,92.50 C226.98,91.16 227.47,91.10 228.24,92.18 C228.96,93.17 229.06,93.09 228.65,91.82 C228.36,90.90 228.85,89.55 229.75,88.82 C231.14,87.70 231.25,87.72 230.50,89.00 C229.74,90.29 229.85,90.31 231.31,89.13 C232.31,88.31 233.00,88.19 233.00,88.82 C233.00,89.41 233.89,89.71 234.98,89.50 C237.24,89.07 238.96,91.43 238.28,94.03 C238.05,94.90 239.28,97.65 241.17,100.63 ZM 383.51 329.31 L 381.12 326.00 C379.40,323.64 378.00,321.24 378.00,320.68 C378.00,320.12 377.28,318.87 376.41,317.90 C375.54,316.93 369.74,307.90 363.53,297.82 C357.31,287.74 350.21,276.35 347.74,272.50 C345.34,268.74 342.34,263.73 341.00,261.18 C341.18,261.49 341.37,261.79 341.56,262.10 C343.18,264.66 344.65,265.96 345.54,265.62 C347.39,264.91 350.07,267.66 349.35,269.53 C349.04,270.34 348.38,271.00 347.88,271.00 C347.16,271.00 349.11,274.59 352.68,279.89 C352.82,280.10 353.96,280.32 355.22,280.39 C357.07,280.48 357.56,281.16 357.83,284.00 C358.18,287.73 359.89,289.36 364.00,289.88 C364.55,289.94 365.00,290.48 365.00,291.06 C365.00,291.64 364.44,291.78 363.75,291.37 C362.94,290.88 363.00,291.23 363.91,292.36 C365.02,293.72 365.50,293.82 366.15,292.80 C367.32,290.95 367.20,292.76 366.00,295.01 C365.33,296.26 365.33,297.08 366.00,297.50 C366.55,297.84 366.99,298.65 366.98,299.31 C366.98,300.02 366.58,299.90 366.00,299.00 C365.47,298.17 365.02,298.01 365.02,298.63 C365.01,299.25 365.67,300.32 366.50,301.00 C367.33,301.68 368.00,302.67 368.00,303.19 C368.00,304.22 370.59,307.09 371.46,307.04 C373.60,306.89 373.92,307.35 373.60,310.08 C373.32,312.49 373.71,313.33 375.37,313.95 C376.54,314.38 378.06,314.52 378.75,314.26 C379.44,314.00 380.00,314.31 380.00,314.95 C380.00,315.59 379.55,315.84 379.00,315.50 C378.45,315.16 378.00,315.39 378.00,316.00 C378.00,316.61 377.55,316.84 377.00,316.50 C375.55,315.61 375.77,316.72 377.58,319.47 C378.49,320.86 379.75,321.65 380.58,321.33 C381.96,320.80 382.18,321.30 382.41,325.50 C382.48,326.60 382.91,328.10 383.38,328.84 C383.42,328.91 383.47,329.07 383.51,329.31 ZM 308.98 209.58 C307.43,206.82 305.42,203.68 304.17,202.08 C302.70,200.20 300.15,196.28 298.50,193.38 C296.85,190.48 293.48,185.03 291.00,181.27 C288.52,177.51 285.96,173.55 285.30,172.47 C284.64,171.38 279.46,163.10 273.80,154.05 C268.13,145.00 263.32,137.13 263.09,136.55 C262.87,135.97 261.63,134.11 260.34,132.41 C259.05,130.70 258.00,128.62 258.00,127.78 C258.00,127.71 258.00,127.64 257.99,127.57 C258.11,127.83 258.22,128.06 258.29,128.25 C258.64,129.21 259.81,130.00 260.88,130.00 C262.29,130.00 262.68,130.52 262.32,131.90 C261.74,134.09 263.90,138.72 264.86,137.35 C265.93,135.82 268.29,136.39 268.57,138.25 C268.71,139.22 268.41,139.76 267.91,139.45 C267.41,139.14 267.00,139.36 267.00,139.94 L 267.00 141.75 C267.00,142.16 267.34,142.51 267.75,142.52 C269.44,142.55 270.81,144.11 270.57,145.74 C270.43,146.69 271.57,148.73 273.11,150.27 C274.90,152.06 275.69,153.66 275.28,154.71 C274.81,155.93 275.07,156.19 276.28,155.72 C278.12,155.02 279.45,157.64 279.88,162.87 C279.98,163.98 280.29,164.00 281.50,163.00 C282.62,162.07 283.00,162.06 283.00,162.94 C283.00,163.59 283.52,163.80 284.16,163.40 C284.99,162.89 285.15,163.71 284.73,166.30 C284.01,170.73 287.35,176.44 290.77,176.61 C291.98,176.67 293.69,177.33 294.58,178.07 C296.06,179.30 296.03,179.56 294.16,181.07 C292.11,182.73 292.12,182.75 295.58,188.12 C297.53,191.15 299.79,193.50 300.75,193.50 C301.95,193.50 302.53,194.47 302.72,196.81 C302.86,198.63 304.34,202.09 305.99,204.49 C307.53,206.73 308.81,208.91 308.98,209.58 ZM 339.28 258.15 C338.12,256.22 336.80,254.21 335.82,252.92 C334.32,250.95 331.16,246.14 328.80,242.24 C326.43,238.34 321.84,230.95 318.58,225.82 C315.82,221.47 312.54,216.01 310.64,212.61 C312.61,215.07 315.79,217.94 316.82,217.77 C318.06,217.57 318.45,218.28 318.43,220.68 C318.42,222.43 318.76,223.65 319.20,223.37 C319.64,223.10 320.00,223.34 320.00,223.91 C320.00,224.47 320.75,224.65 321.66,224.30 C322.78,223.87 323.09,224.04 322.61,224.83 C322.16,225.56 322.57,226.01 323.69,226.02 C324.77,226.02 325.07,226.33 324.43,226.77 C322.29,228.23 322.16,230.80 324.11,232.89 C325.19,234.05 325.82,235.00 325.51,235.00 C325.20,235.00 325.65,236.36 326.51,238.01 C327.70,240.33 328.60,240.93 330.38,240.61 C333.59,240.03 335.39,241.39 334.74,243.90 C334.44,245.05 334.56,246.23 335.02,246.52 C335.49,246.80 335.67,248.09 335.43,249.39 C335.18,250.77 335.83,252.78 337.00,254.28 C338.10,255.67 339.00,257.09 339.00,257.43 C339.00,257.53 339.10,257.78 339.28,258.15 ZM 256.49 124.99 C256.46,124.97 256.43,124.94 256.40,124.92 C254.60,123.42 250.25,116.79 246.92,110.56 C248.18,112.25 250.53,114.00 251.97,114.00 C253.15,114.00 253.84,114.45 253.50,115.00 C253.16,115.55 253.30,116.00 253.80,116.00 C254.31,116.00 254.50,117.16 254.23,118.58 C253.92,120.20 254.46,122.15 255.69,123.83 C255.95,124.19 256.22,124.59 256.49,124.99 ZM 282.00 239.00 C282.00,238.45 282.48,238.00 283.06,238.00 C283.64,238.00 283.84,238.45 283.50,239.00 C283.16,239.55 282.68,240.00 282.44,240.00 C282.20,240.00 282.00,239.55 282.00,239.00 ZM 246.08 108.98 C245.97,108.74 245.85,108.51 245.73,108.29 C244.84,106.51 243.32,103.94 241.73,101.49 C241.79,101.58 241.85,101.67 241.91,101.76 C244.16,105.05 246.01,108.14 246.03,108.62 C246.04,108.73 246.06,108.85 246.08,108.98 ZM 384.41 347.93 C384.57,355.92 384.54,363.62 384.18,364.75 C384.39,364.09 384.49,356.63 384.41,347.93 Z" fill="rgb(4,4,4)"/>
<path d="M 105.00 348.50 L 105.00 331.01 L 223.89 330.75 L 342.77 330.50 L 325.00 302.00 C315.23,286.33 284.25,236.65 256.15,191.60 C228.06,146.56 205.27,109.38 205.51,108.98 C206.11,108.01 234.09,90.72 234.37,91.16 C234.48,91.35 236.50,94.10 238.85,97.29 C241.20,100.47 244.30,105.42 245.73,108.29 C249.14,115.07 254.37,123.24 256.40,124.92 C257.28,125.65 258.00,126.93 258.00,127.78 C258.00,128.62 259.05,130.70 260.34,132.41 C261.63,134.11 262.87,135.97 263.09,136.55 C263.32,137.13 268.13,145.00 273.80,154.05 C279.46,163.10 284.64,171.38 285.30,172.47 C285.96,173.55 288.52,177.51 291.00,181.27 C293.48,185.03 296.85,190.48 298.50,193.38 C300.15,196.28 302.70,200.20 304.17,202.08 C305.65,203.96 308.16,207.98 309.76,211.00 C311.36,214.02 315.33,220.69 318.58,225.82 C321.84,230.95 326.43,238.34 328.80,242.24 C331.16,246.14 334.32,250.95 335.82,252.92 C337.31,254.89 339.60,258.52 340.90,261.00 C342.19,263.48 345.28,268.65 347.74,272.50 C350.21,276.35 357.31,287.74 363.53,297.82 C369.74,307.90 375.54,316.93 376.41,317.90 C377.28,318.87 378.00,320.12 378.00,320.68 C378.00,321.24 379.40,323.64 381.12,326.00 L 384.23 330.30 L 384.40 346.90 C384.50,356.03 384.40,364.06 384.18,364.75 C383.87,365.74 355.03,366.00 244.39,366.00 L 105.00 366.00 L 105.00 348.50 Z" fill="rgb(254,254,254)"/>
</g>
</svg>